<svg width="18" height="18" viewBox="0 0 18 18" fill="none" xmlns="http://www.w3.org/2000/svg">
<g clip-path="url(#clip0_28_47)">
<path d="M8.99994 13.05C6.86666 13.05 5.13978 11.3988 4.98088 9.30628L2.03056 7.02619C1.64272 7.51275 1.28581 8.02716 0.997814 8.58966C0.933476 8.71693 0.899955 8.85754 0.899955 9.00014C0.899955 9.14275 0.933476 9.28336 0.997814 9.41063C2.52303 12.3865 5.54253 14.4 8.99994 14.4C9.75678 14.4 10.4869 14.2875 11.1906 14.1058L9.73119 12.9766C9.49016 13.0232 9.24541 13.0477 8.99994 13.05ZM17.8261 14.6841L14.7169 12.2811C15.6614 11.4851 16.4382 10.5093 17.0021 9.41034C17.0664 9.28308 17.0999 9.14247 17.0999 8.99986C17.0999 8.85725 17.0664 8.71664 17.0021 8.58938C15.4768 5.61347 12.4573 3.6 8.99994 3.6C7.55192 3.60176 6.12743 3.96629 4.85656 4.66031L1.2785 1.89478C1.23184 1.85847 1.17849 1.83172 1.12148 1.81604C1.06448 1.80036 1.00495 1.79607 0.946282 1.80341C0.887619 1.81075 0.830977 1.82957 0.779593 1.85881C0.728209 1.88805 0.68309 1.92713 0.646814 1.97381L0.0947204 2.68453C0.0214825 2.77875 -0.0113349 2.89819 0.00348584 3.0166C0.0183066 3.13501 0.0795519 3.24268 0.173752 3.31594L16.7214 16.1052C16.768 16.1415 16.8214 16.1683 16.8784 16.184C16.9354 16.1996 16.9949 16.2039 17.0536 16.1966C17.1123 16.1893 17.1689 16.1704 17.2203 16.1412C17.2717 16.1119 17.3168 16.0729 17.3531 16.0262L17.9054 15.3155C17.9786 15.2212 18.0114 15.1018 17.9965 14.9833C17.9817 14.8649 17.9204 14.7573 17.8261 14.6841ZM12.659 10.6903L11.5537 9.83588C11.6468 9.56685 11.6961 9.28465 11.6999 9C11.7054 8.58326 11.6131 8.17104 11.4304 7.79646C11.2477 7.42187 10.9796 7.09536 10.6478 6.84316C10.316 6.59095 9.9297 6.42007 9.51988 6.34425C9.11006 6.26843 8.68817 6.28979 8.2881 6.40659C8.45769 6.6364 8.54943 6.91439 8.54994 7.2C8.54574 7.29504 8.53122 7.38935 8.50663 7.48125L6.43635 5.88122C7.1555 5.28025 8.06274 4.95069 8.99994 4.95C9.53188 4.9497 10.0587 5.05426 10.5502 5.25769C11.0417 5.46111 11.4882 5.75942 11.8644 6.13556C12.2405 6.51169 12.5388 6.95828 12.7423 7.44978C12.9457 7.94129 13.0502 8.46806 13.0499 9C13.0499 9.60834 12.9012 10.1753 12.659 10.6906V10.6903Z" fill="white" fill-opacity="0.2"/>
</g>
<defs>
<clipPath id="clip0_28_47">
<rect width="18" height="18" fill="white"/>
</clipPath>
</defs>
</svg>
