<svg width="18" height="18" viewBox="0 0 18 18" fill="none" xmlns="http://www.w3.org/2000/svg">
<g clip-path="url(#clip0_28_57)">
<path d="M7.25573 9.47733L1.78983 14.9432C1.52622 15.2068 1.09883 15.2068 0.835243 14.9432L0.197705 14.3057C-0.0654605 14.0426 -0.0659667 13.616 0.19658 13.3523L4.52845 9.00002L0.196608 4.64782C-0.0659386 4.38403 -0.0654323 3.95752 0.197733 3.69435L0.835243 3.05684C1.09886 2.79323 1.52625 2.79323 1.78983 3.05684L7.25573 8.52274C7.51935 8.78633 7.51935 9.21371 7.25573 9.47733ZM18 14.625V13.725C18 13.3522 17.6978 13.05 17.325 13.05H8.77501C8.40222 13.05 8.10001 13.3522 8.10001 13.725V14.625C8.10001 14.9978 8.40222 15.3 8.77501 15.3H17.325C17.6978 15.3 18 14.9978 18 14.625Z" fill="white" fill-opacity="0.2"/>
</g>
<defs>
<clipPath id="clip0_28_57">
<rect width="18" height="18" fill="white"/>
</clipPath>
</defs>
</svg>
