<svg width="18" height="18" viewBox="0 0 18 18" fill="none" xmlns="http://www.w3.org/2000/svg">
<g clip-path="url(#clip0_23_7)">
<path d="M16.3125 1.12501H12.0938L11.7633 0.467584C11.6933 0.327035 11.5854 0.208807 11.4519 0.126203C11.3184 0.0435979 11.1644 -0.000106452 11.0074 6.16385e-06H6.98906C6.8324 -0.000596082 6.67874 0.0429453 6.54567 0.125642C6.41261 0.208338 6.30554 0.326845 6.23672 0.467584L5.90625 1.12501H1.6875C1.53832 1.12501 1.39524 1.18427 1.28975 1.28976C1.18426 1.39525 1.125 1.53832 1.125 1.68751V2.81251C1.125 2.96169 1.18426 3.10476 1.28975 3.21025C1.39524 3.31574 1.53832 3.37501 1.6875 3.37501H16.3125C16.4617 3.37501 16.6048 3.31574 16.7102 3.21025C16.8157 3.10476 16.875 2.96169 16.875 2.81251V1.68751C16.875 1.53832 16.8157 1.39525 16.7102 1.28976C16.6048 1.18427 16.4617 1.12501 16.3125 1.12501ZM2.99531 16.418C3.02214 16.8464 3.21123 17.2485 3.52408 17.5424C3.83694 17.8363 4.25004 18 4.6793 18H13.3207C13.75 18 14.1631 17.8363 14.4759 17.5424C14.7888 17.2485 14.9779 16.8464 15.0047 16.418L15.6836 5.56242C15.7196 4.98671 15.2623 4.50001 14.6855 4.50001H3.31449C2.73766 4.50001 2.28044 4.98671 2.31644 5.56242L2.99531 16.418Z" fill="white" fill-opacity="0.2"/>
</g>
<defs>
<clipPath id="clip0_23_7">
<rect width="18" height="18" fill="white"/>
</clipPath>
</defs>
</svg>
