<svg width="11" height="11" viewBox="0 0 11 11" fill="none" xmlns="http://www.w3.org/2000/svg">
<g clip-path="url(#clip0_23_7)">
<path d="M9.96875 0.687504H7.39063L7.18867 0.285746C7.14589 0.199854 7.07999 0.127604 6.99839 0.0771238C6.91679 0.0266432 6.82271 -6.50539e-05 6.72676 3.7668e-06H4.27109C4.17536 -0.000364272 4.08145 0.0262444 4.00013 0.0767811C3.91882 0.127318 3.85339 0.199739 3.81133 0.285746L3.60938 0.687504H1.03125C0.940082 0.687504 0.852648 0.72372 0.788182 0.788186C0.723716 0.852651 0.6875 0.940086 0.6875 1.03125L0.6875 1.71875C0.6875 1.80992 0.723716 1.89736 0.788182 1.96182C0.852648 2.02629 0.940082 2.0625 1.03125 2.0625H9.96875C10.0599 2.0625 10.1474 2.02629 10.2118 1.96182C10.2763 1.89736 10.3125 1.80992 10.3125 1.71875V1.03125C10.3125 0.940086 10.2763 0.852651 10.2118 0.788186C10.1474 0.72372 10.0599 0.687504 9.96875 0.687504ZM1.83047 10.0332C1.84686 10.295 1.96242 10.5407 2.15361 10.7204C2.34479 10.9 2.59725 11 2.85957 11H8.14043C8.40275 11 8.65521 10.9 8.84639 10.7204C9.03758 10.5407 9.15314 10.295 9.16953 10.0332L9.55856 3.81242C9.59456 3.23671 9.13735 2.75 8.56051 2.75H2.43949C1.86265 2.75 1.40544 3.23671 1.44144 3.81242L1.83047 10.0332Z" fill="black" fill-opacity="0.8"/>
</g>
<defs>
<clipPath id="clip0_23_7">
<rect width="11" height="11" fill="white"/>
</clipPath>
</defs>
</svg>
